<svg width="0" height="0" class="hidden">
  <!-- logo -->
  <symbol fill="none" xmlns="http://www.w3.org/2000/svg" viewBox="0 0 69 24" id="logo">
    <path d="M10.8261 10.4633C9.45139 10.3729 8.19619 10.3051 7.06053 10.2599L7.03811 12.6554C7.03811 13.4689 7.20995 14.1092 7.55364 14.5763C7.91227 15.0283 8.53987 15.2542 9.43645 15.2542C9.78013 15.2542 10.1089 15.2241 10.4227 15.1638C10.3629 15.7213 10.333 16.2863 10.333 16.8588C10.333 17.1299 10.348 17.7476 10.3779 18.7119C9.72036 18.8324 9.16748 18.9077 8.71919 18.9379C8.2709 18.968 7.68813 18.9831 6.97087 18.9831C5.22255 18.9831 3.98229 18.5612 3.25008 17.7175C2.53282 16.8588 2.17419 15.6686 2.17419 14.1469L2.19661 10.3277C1.49429 10.3578 0.762088 10.403 0 10.4633V6.46328C0.777031 6.46328 1.43452 6.21469 1.97246 5.71751C2.51041 5.22034 2.83168 4.62524 2.93628 3.9322H9.03299C8.2709 4.98682 7.42663 5.83051 6.50017 6.46328H10.8261V10.4633Z" fill="currentColor"></path>
    <path d="M15.8401 5.08475C14.8987 5.08475 14.1964 4.85122 13.7332 4.38418C13.2849 3.91714 13.0607 3.30697 13.0607 2.55367C13.0607 1.81544 13.2849 1.20527 13.7332 0.723164C14.1964 0.241054 14.8987 0 15.8401 0C16.7367 0 17.4241 0.248587 17.9022 0.745762C18.3804 1.22787 18.6195 1.83051 18.6195 2.55367C18.6195 3.30697 18.3879 3.91714 17.9247 4.38418C17.4614 4.85122 16.7666 5.08475 15.8401 5.08475ZM13.2401 18.7571C13.3447 16.3315 13.397 14.3277 13.397 12.7458C13.397 10.8625 13.3372 8.7533 13.2176 6.41808H18.5971C18.4776 8.6629 18.4178 10.7721 18.4178 12.7458C18.4178 14.403 18.4701 16.4068 18.5747 18.7571H13.2401Z" fill="currentColor"></path>
    <path d="M38.6727 18.7571C38.7922 16.7834 38.852 14.742 38.852 12.6328C38.852 11.9548 38.6801 11.4275 38.3364 11.0508C38.0077 10.6591 37.5669 10.4633 37.014 10.4633C36.5059 10.4633 36.0651 10.6893 35.6915 11.1412C35.3329 11.5932 35.1536 12.2486 35.1536 13.1073V13.0847C35.1536 15.7514 35.191 17.6422 35.2657 18.7571H30.2224C30.3121 16.5424 30.3569 14.5009 30.3569 12.6328C30.3569 11.9699 30.1926 11.4426 29.8638 11.0508C29.55 10.6591 29.1466 10.4633 28.6534 10.4633C28.1304 10.4633 27.6896 10.6893 27.331 11.1412C26.9873 11.5782 26.7856 12.1808 26.7258 12.9492C26.6959 14.0942 26.681 14.9077 26.681 15.3898C26.681 16.4143 26.7109 17.5367 26.7706 18.7571H21.4136C21.5331 16.5876 21.5929 14.5386 21.5929 12.6102C21.5929 10.6817 21.5331 8.6177 21.4136 6.41808C22.3998 6.46328 23.1544 6.48588 23.6774 6.48588C24.2303 6.48588 24.985 6.46328 25.9413 6.41808L26.6137 9.76271C26.9574 8.54237 27.5028 7.64595 28.25 7.07345C28.9971 6.48588 29.8563 6.19209 30.8276 6.19209C31.9932 6.19209 32.9421 6.51601 33.6743 7.16384C34.4214 7.81168 34.8846 8.65537 35.0639 9.69492C35.4076 8.62524 35.9829 7.77401 36.7899 7.14124C37.5968 6.50848 38.5158 6.19209 39.5468 6.19209C40.8917 6.19209 41.9452 6.6516 42.7072 7.57062C43.4693 8.47458 43.8504 9.71751 43.8504 11.2994V15.0508C43.8504 16.7533 43.8653 17.9887 43.8952 18.7571H38.6727Z" fill="currentColor"></path>
    <path d="M56.3723 6.19209C57.3436 6.19209 58.2178 6.47081 58.9948 7.02825C59.7718 7.58569 60.377 8.34652 60.8104 9.31073C61.2437 10.2599 61.4604 11.307 61.4604 12.452C61.4604 13.5819 61.2437 14.6516 60.8104 15.661C60.377 16.6554 59.7643 17.4614 58.9724 18.0791C58.1953 18.6817 57.3062 18.9831 56.3051 18.9831C55.1395 18.9831 54.1383 18.742 53.3015 18.2599C52.4797 17.7627 51.867 17.0019 51.4636 15.9774C51.4636 16.8362 51.4934 18.2147 51.5532 20.113C51.613 21.951 51.6429 23.2467 51.6429 24L49.0798 22.653L46.5772 24C46.6669 21.1977 46.7117 18.2674 46.7117 15.209C46.7117 12.1507 46.6669 9.22034 46.5772 6.41808H50.8808L51.5308 9.24294C51.9492 8.18832 52.5768 7.41996 53.4136 6.93785C54.2504 6.44068 55.2366 6.19209 56.3723 6.19209ZM53.974 14.9153C54.6464 14.9153 55.2068 14.7043 55.655 14.2825C56.1183 13.8456 56.3499 13.2806 56.3499 12.5876C56.3499 11.8192 56.1407 11.194 55.7223 10.7119C55.3039 10.2298 54.7361 9.9887 54.0188 9.9887C53.1969 9.9887 52.5768 10.1921 52.1584 10.5989C51.74 10.9906 51.5308 11.6535 51.5308 12.5876C51.5308 13.1149 51.6653 13.5593 51.9343 13.9209C52.2032 14.2674 52.5245 14.5235 52.8981 14.6893C53.2717 14.8399 53.6303 14.9153 53.974 14.9153Z" fill="currentColor"></path>
    <path d="M68.9776 9.71752C68.9626 10.6215 68.9552 12.0075 68.9552 13.8757C68.9552 16.1205 68.9701 17.7476 69 18.7571H63.7102L63.7326 16.2034C63.7625 13.4011 63.7775 11.2392 63.7775 9.71752C63.7775 8.27119 63.7625 6.22222 63.7326 3.57062L63.7102 1.12994H69C68.9701 3.2693 68.9552 5.01695 68.9552 6.37288C68.9552 7.87947 68.9626 8.99435 68.9776 9.71752Z" fill="currentColor"></path>
  </symbol>

  <!-- colors -->
  <symbol fill="none" xmlns="http://www.w3.org/2000/svg" viewBox="0 0 19 24" id="colors">
    <ellipse cx="12.8912" cy="3.42858" rx="2.90683" ry="2.8323" fill="url(#paint0_radial_0_439)"></ellipse>
    <circle cx="17.143" cy="6.55901" r="1.49068" fill="url(#paint1_radial_0_439)"></circle>
    <rect x="9.98438" y="8.64597" width="8.64596" height="14.9068" rx="1.86435" fill="#D8F0F6"></rect>
    <rect x="1.04276" y="0.596283" width="8.49689" height="13.5652" rx="1.86435" fill="#DAC8F9"></rect>
    <path d="M9.53911 18.2708V14.6087H5.89584C5.06307 14.6087 4.23502 14.7337 3.43935 14.9795L3.30395 15.0213C2.30258 15.3307 1.45789 16.0121 0.943757 16.9254C0.523133 17.6726 0.347607 18.533 0.44192 19.3852L0.460008 19.5487C0.499586 19.9063 0.580929 20.2581 0.702373 20.5968L0.713142 20.6268C1.22249 22.0474 2.36773 23.1474 3.80764 23.5992L4.01918 23.6656C4.71654 23.8844 5.46035 23.909 6.17067 23.7369C7.50593 23.4133 8.58364 22.4305 9.02866 21.1307L9.09567 20.935C9.38928 20.0774 9.53911 19.1772 9.53911 18.2708Z" fill="#F5CFC8"></path>
    <defs>
      <radialGradient id="paint0_radial_0_439" cx="0" cy="0" r="1" gradientUnits="userSpaceOnUse" gradientTransform="translate(12.8912 3.42858) rotate(90) scale(2.8323 2.90683)">
        <stop stop-color="#E3F2DF"></stop>
        <stop offset="1" stop-color="#DAFDD1"></stop>
      </radialGradient>
      <radialGradient id="paint1_radial_0_439" cx="0" cy="0" r="1" gradientUnits="userSpaceOnUse" gradientTransform="translate(17.143 6.55901) rotate(90) scale(1.49068)">
        <stop stop-color="#E3F2DF"></stop>
        <stop offset="1" stop-color="#DAFDD1"></stop>
      </radialGradient>
    </defs>
  </symbol>

  <!-- star -->
  <symbol fill="none" xmlns="http://www.w3.org/2000/svg" viewBox="0 0 37 36" id="star">
    <path d="M33.4905 13.8513C33.3958 13.5769 33.2235 13.3359 32.9945 13.1575C32.7655 12.9791 32.4897 12.871 32.2005 12.8463L23.6655 11.6013L19.8405 3.84626C19.7177 3.59266 19.5259 3.37878 19.2872 3.22912C19.0484 3.07947 18.7723 3.0001 18.4905 3.0001C18.2087 3.0001 17.9326 3.07947 17.6939 3.22912C17.4551 3.37878 17.2633 3.59266 17.1405 3.84626L13.3155 11.5863L4.78052 12.8463C4.5029 12.8857 4.24191 13.0022 4.02714 13.1825C3.81238 13.3628 3.65246 13.5997 3.56552 13.8663C3.48594 14.1268 3.4788 14.404 3.54486 14.6683C3.61093 14.9326 3.74771 15.1738 3.94052 15.3663L10.1355 21.3663L8.63552 29.8863C8.58197 30.1675 8.61001 30.4581 8.71633 30.7239C8.82264 30.9897 9.0028 31.2196 9.23552 31.3863C9.46235 31.5484 9.72988 31.6441 10.0081 31.6627C10.2863 31.6812 10.5642 31.6219 10.8105 31.4913L18.4905 27.4863L26.1405 31.5063C26.351 31.625 26.5888 31.6871 26.8305 31.6863C27.1483 31.6874 27.4581 31.5876 27.7155 31.4013C27.9482 31.2346 28.1284 31.0047 28.2347 30.7389C28.341 30.4731 28.3691 30.1825 28.3155 29.9013L26.8155 21.3813L33.0105 15.3813C33.2271 15.1978 33.3872 14.9566 33.4721 14.6858C33.5571 14.415 33.5635 14.1256 33.4905 13.8513Z" fill="currentColor"></path>
  </symbol>

  <!-- spots -->
  <svg width="0" height="0" class="hidden">
  <symbol fill="none" xmlns="http://www.w3.org/2000/svg" viewBox="0 0 74 74" id="spots">
    <path opacity="0.05" fill-rule="evenodd" clip-rule="evenodd" d="M38.3931 0.593991C29.2076 2.51366 26.4449 13.2635 19.8253 19.7166C13.2571 26.1195 2.04508 28.8096 0.349846 37.6802C-1.48766 47.2951 4.1655 56.9671 11.4019 63.7931C18.5522 70.538 28.6162 75.5363 38.3931 73.5662C47.3005 71.7713 49.8814 61.2352 56.079 54.7906C61.8407 48.7992 70.9366 45.6393 72.9035 37.6802C75.2693 28.1069 74.0005 17.1326 67.1932 9.81724C60.1596 2.25866 48.6685 -1.55345 38.3931 0.593991Z" fill="currentColor"></path>
    <path opacity="0.05" fill-rule="evenodd" clip-rule="evenodd" d="M34.9812 10.1803C26.8018 10.0942 18.1539 5.4316 11.3762 10.0106C3.88936 15.0687 1.0313 24.6077 0.297935 33.6123C-0.507339 43.4998 -0.125648 54.6981 7.19099 61.3985C14.3648 67.968 25.2576 65.6647 34.9812 65.3743C44.2528 65.0974 53.9697 65.6464 61.1594 59.7866C68.9853 53.4083 74.5787 43.6879 73.9521 33.6123C73.3494 23.9193 66.4185 15.5071 58.0946 10.5022C51.2301 6.37485 42.9909 10.2646 34.9812 10.1803Z" fill="#9771FD"></path>
  </symbol>

  <!-- apple-pay -->
  <symbol fill="none" xmlns="http://www.w3.org/2000/svg" viewBox="0 0 48 24" id="apple-pay">
    <path d="M9.44544 6.66696C10.7514 6.66696 11.7518 7.17197 12.4466 8.18199L12.3694 8.23024C12.3179 8.26884 12.2632 8.31065 12.2053 8.35569C12.1474 8.39429 12.0734 8.45218 11.9834 8.52938C11.8997 8.60015 11.8161 8.68378 11.7325 8.78028C11.6488 8.87035 11.5588 8.97328 11.4623 9.08908C11.3722 9.19844 11.2886 9.32711 11.2114 9.47507C11.1406 9.6166 11.0731 9.76779 11.0087 9.92862C10.9508 10.083 10.9026 10.2599 10.864 10.4594C10.8318 10.6588 10.8157 10.8614 10.8157 11.0673C10.8157 11.4919 10.8865 11.8875 11.028 12.2542C11.1696 12.6145 11.3304 12.904 11.5105 13.1227C11.6906 13.3415 11.8901 13.5345 12.1088 13.7017C12.3275 13.869 12.4916 13.9816 12.601 14.0395C12.7168 14.0974 12.7972 14.1327 12.8422 14.1456C12.8293 14.1971 12.7907 14.3097 12.7264 14.4834C12.6685 14.6571 12.5527 14.924 12.379 15.2843C12.2117 15.6446 12.022 15.9855 11.8097 16.3072C11.6038 16.6031 11.4333 16.8379 11.2982 17.0116C11.1631 17.1789 10.9926 17.3655 10.7868 17.5713C10.5809 17.7772 10.3654 17.9284 10.1402 18.0249C9.9215 18.1214 9.68991 18.1696 9.44544 18.1696C9.11091 18.1696 8.71527 18.0699 8.25851 17.8705C7.80175 17.671 7.37072 17.5713 6.96542 17.5713C6.55369 17.5713 6.10337 17.6743 5.61444 17.8801C5.12551 18.086 4.7363 18.1889 4.4468 18.1889C4.02221 18.1889 3.63621 18.0313 3.28882 17.7161C2.94785 17.4008 2.54899 16.9183 2.09223 16.2686C1.62904 15.606 1.24626 14.8211 0.943895 13.914C0.647965 13.0005 0.5 12.1031 0.5 11.2217C0.5 10.514 0.609365 9.8675 0.828096 9.28207C1.04683 8.69665 1.33632 8.22059 1.69659 7.85389C2.05685 7.4872 2.46214 7.20413 2.91247 7.0047C3.3628 6.80527 3.82921 6.70556 4.3117 6.70556C4.67197 6.70556 5.12551 6.81492 5.67234 7.03365C6.2256 7.25238 6.59229 7.36175 6.77242 7.36175C6.92682 7.36175 7.30317 7.24595 7.90146 7.01435C8.49975 6.78275 9.01441 6.66696 9.44544 6.66696ZM8.9147 5.42212C8.65737 5.73092 8.33249 5.98825 7.94006 6.19411C7.55407 6.39998 7.19059 6.50291 6.84962 6.50291C6.77886 6.50291 6.71131 6.49647 6.64698 6.48361C6.62768 6.40641 6.61803 6.31313 6.61803 6.20376C6.61803 5.83707 6.69844 5.47037 6.85927 5.10367C7.0201 4.73698 7.21632 4.41853 7.44792 4.14834C7.72455 3.82667 8.06873 3.55969 8.48045 3.3474C8.89862 3.12867 9.29748 3.01287 9.67704 3C9.69634 3.08363 9.70599 3.18335 9.70599 3.29915C9.70599 4.0647 9.44223 4.77236 8.9147 5.42212Z" fill="currentColor"></path>
    <path d="M16.6354 4.09044H22.2516C23.6412 4.09044 24.767 4.52468 25.6291 5.39317C26.4976 6.26166 26.9318 7.39713 26.9318 8.79958C26.9318 10.1763 26.4847 11.2957 25.5905 12.1577C24.7027 13.0198 23.5544 13.4508 22.1455 13.4508H19.1251V18.0152H16.6354V4.09044ZM19.1251 6.17481V11.3857H21.5858C22.48 11.3857 23.1716 11.1606 23.6605 10.7103C24.1559 10.2599 24.4036 9.62304 24.4036 8.79958C24.4036 7.95039 24.1591 7.30063 23.6702 6.8503C23.1877 6.39998 22.4961 6.17481 21.5955 6.17481H19.1251Z" fill="currentColor"></path>
    <path d="M31.6032 16.3072C32.3237 16.3072 32.9252 16.1013 33.4077 15.6896C33.8902 15.2714 34.1315 14.7568 34.1315 14.1456V13.3061L31.7479 13.4605C30.4356 13.5441 29.7794 14.0202 29.7794 14.8887C29.7794 15.3261 29.9466 15.6735 30.2812 15.9308C30.6221 16.1817 31.0628 16.3072 31.6032 16.3072ZM30.8987 18.1889C29.8694 18.1889 29.0299 17.8994 28.3801 17.3204C27.7304 16.7414 27.4055 15.9759 27.4055 15.0238C27.4055 14.0716 27.7497 13.3254 28.438 12.785C29.1328 12.2446 30.1235 11.9358 31.4102 11.8586L34.1315 11.6945V10.8068C34.1315 10.2857 33.961 9.8868 33.62 9.61017C33.2791 9.33354 32.7869 9.19523 32.1436 9.19523C31.5903 9.19523 31.1336 9.29172 30.7733 9.48472C30.413 9.67129 30.1782 9.94148 30.0689 10.2953H27.8108C27.9073 9.36249 28.3576 8.62267 29.1618 8.07584C29.9724 7.52258 31.0049 7.24595 32.2594 7.24595C33.6104 7.24595 34.6526 7.55796 35.3859 8.18199C36.1258 8.80601 36.4957 9.68094 36.4957 10.8068V18.0152H34.1894V16.5677H34.0253C33.7294 17.076 33.3048 17.4748 32.7515 17.7643C32.2047 18.0474 31.5871 18.1889 30.8987 18.1889Z" fill="currentColor"></path>
    <path d="M39.1599 21.8462C38.6645 21.8462 38.3493 21.8334 38.2142 21.8076V19.8487C38.3364 19.8744 38.5551 19.8873 38.8704 19.8873C39.3786 19.8873 39.7807 19.7811 40.0766 19.5689C40.379 19.3566 40.6073 19.0092 40.7617 18.5267L40.8872 18.0635L37.1141 7.45825H39.7389L42.2092 15.6992H42.3733L44.834 7.45825H47.3623L43.5506 18.353C43.1067 19.6589 42.5598 20.566 41.9101 21.0742C41.2668 21.5889 40.35 21.8462 39.1599 21.8462Z" fill="currentColor"></path>
  </symbol>

  <!-- cross -->
  <symbol fill="none" xmlns="http://www.w3.org/2000/svg" viewBox="0 0 12 12" id="cross">
    <path d="M7.41 6L11.71 1.71C11.8983 1.5217 12.0041 1.2663 12.0041 1C12.0041 0.733701 11.8983 0.478306 11.71 0.290002C11.5217 0.101699 11.2663 -0.00408936 11 -0.00408936C10.7337 -0.00408936 10.4783 0.101699 10.29 0.290002L6 4.59L1.71 0.290002C1.5217 0.101699 1.2663 -0.00408936 1 -0.00408936C0.733698 -0.00408935 0.478304 0.101699 0.29 0.290002C0.101696 0.478306 -0.00409174 0.733701 -0.00409174 1C-0.00409174 1.2663 0.101696 1.5217 0.29 1.71L4.59 6L0.29 10.29C0.196272 10.383 0.121877 10.4936 0.0711088 10.6154C0.0203401 10.7373 -0.00579834 10.868 -0.00579834 11C-0.00579834 11.132 0.0203401 11.2627 0.0711088 11.3846C0.121877 11.5064 0.196272 11.617 0.29 11.71C0.382963 11.8037 0.493564 11.8781 0.615423 11.9289C0.737282 11.9797 0.867988 12.0058 1 12.0058C1.13201 12.0058 1.26272 11.9797 1.38458 11.9289C1.50644 11.8781 1.61704 11.8037 1.71 11.71L6 7.41L10.29 11.71C10.383 11.8037 10.4936 11.8781 10.6154 11.9289C10.7373 11.9797 10.868 12.0058 11 12.0058C11.132 12.0058 11.2627 11.9797 11.3846 11.9289C11.5064 11.8781 11.617 11.8037 11.71 11.71C11.8037 11.617 11.8781 11.5064 11.9289 11.3846C11.9797 11.2627 12.0058 11.132 12.0058 11C12.0058 10.868 11.9797 10.7373 11.9289 10.6154C11.8781 10.4936 11.8037 10.383 11.71 10.29L7.41 6Z" fill="currentColor" fill-opacity="0.5"></path>
  </symbol>

  <!-- arrow-down -->
  <symbol fill="none" xmlns="http://www.w3.org/2000/svg" viewBox="0 0 12 8" id="arrow-down">
    <path d="M10.9997 1.1697C10.8123 0.983448 10.5589 0.878906 10.2947 0.878906C10.0305 0.878906 9.77707 0.983448 9.5897 1.1697L5.9997 4.7097L2.4597 1.1697C2.27234 0.983448 2.01889 0.878906 1.7547 0.878906C1.49052 0.878906 1.23707 0.983448 1.0497 1.1697C0.955976 1.26266 0.881582 1.37326 0.830813 1.49512C0.780044 1.61698 0.753906 1.74769 0.753906 1.8797C0.753906 2.01171 0.780044 2.14242 0.830813 2.26428C0.881582 2.38613 0.955976 2.49674 1.0497 2.5897L5.2897 6.8297C5.38267 6.92343 5.49327 6.99782 5.61513 7.04859C5.73699 7.09936 5.86769 7.1255 5.9997 7.1255C6.13172 7.1255 6.26242 7.09936 6.38428 7.04859C6.50614 6.99782 6.61674 6.92343 6.7097 6.8297L10.9997 2.5897C11.0934 2.49674 11.1678 2.38613 11.2186 2.26428C11.2694 2.14242 11.2955 2.01171 11.2955 1.8797C11.2955 1.74769 11.2694 1.61698 11.2186 1.49512C11.1678 1.37326 11.0934 1.26266 10.9997 1.1697Z" fill="currentColor"></path>
  </symbol>
</svg>